PathFileType	3	(X/Y/Z)	D:\minhoCalibration\240510\subject4_KPNP\preferred\preferred11.trc
DataRate	CameraRate	NumFrames	NumMarkers	Units	OrigDataRate	OrigDataStartFrame	OrigNumFrames
200.0	200.0	25	10	mm	200.0	221	66	
Frame#	Time	Left_Ankle_Outer1			Left_Ankle_Inner1			Left_Knee_Outer1			Left_Knee_Inner1			Left_Wrist1			Right_Wrist1			Right_Knee_Inner1			Right_Knee_Outer1			Right_Ankle_Inner1			Right_Ankle_Outer1			
		X1	Y1	Z1	X2	Y2	Z2	X3	Y3	Z3	X4	Y4	Z4	X5	Y5	Z5	X6	Y6	Z6	X7	Y7	Z7	X8	Y8	Z8	X9	Y9	Z9	X10	Y10	Z10	
221	1.095	-788.46997	786.69995	946.32855	-736.3241	698.48395	952.02942	-373.7373	977.50726	763.40442	-325.76776	884.03314	809.1582	-470.763	1171.5756	1141.4711	-434.96097	934.12415	1431.3634	-339.20502	543.5896	1150.0137	-337.82114	549.40186	1257.9132	-566.05377	113.78397	1184.4202	-542.73486	117.62614	1236.9462
222	1.1	-791.77435	813.75323	902.52081	-744.40637	722.3421	908.04828	-352.28781	990.3999	765.34045	-313.48141	892.91968	808.98602	-464.02985	1175.4872	1140.8242	-446.11331	932.45465	1428.2015	-338.14838	544.96484	1150.2562	-340.58032	550.88385	1258.4509	-565.03607	115.01772	1181.6438	-542.9939	118.94529	1234.6642
223	1.105	-792.55847	841.81097	857.19232	-750.56165	748.13708	863.00568	-332.496	1001.6632	768.38464	-302.67987	900.90485	808.69879	-457.66916	1178.9015	1140.4692	-457.08389	930.66211	1424.1163	-338.11023	546.28754	1150.1608	-343.89508	552.18951	1258.3601	-563.90186	116.14251	1179.5594	-543.18396	119.97072	1232.7924
224	1.11	-790.01123	870.20135	809.74298	-752.35828	774.63568	814.11029	-314.68073	1011.3009	772.39618	-293.36005	908.05933	808.30304	-451.6022	1181.9775	1140.377	-467.7673	928.93372	1419.4795	-338.79553	547.6377	1149.6815	-347.39401	553.53241	1258.5726	-563.31146	116.61729	1177.7294	-543.43213	120.64282	1231.3342
225	1.115	-784.58618	899.2226	761.54004	-751.64874	801.94104	764.77588	-298.94446	1019.2858	777.01202	-285.48193	914.6134	807.39233	-445.79471	1184.6107	1140.4918	-477.9855	927.3158	1414.3632	-339.53131	548.81458	1148.2878	-351.30038	554.84479	1258.3126	-562.91162	116.71912	1176.6049	-543.81134	121.00478	1230.3798
226	1.12	-775.05365	928.98901	712.05859	-747.16827	827.6991	704.93024	-286.02502	1025.5442	782.36597	-279.21075	920.60724	806.06818	-440.33932	1187.0731	1140.6942	-487.48468	925.82977	1408.726	-342.14996	549.74731	1147.6001	-355.3772	556.18213	1257.6589	-562.86218	116.7073	1175.952	-544.33484	121.04305	1229.839
227	1.125	-761.39374	959.01227	661.77747	-736.37665	857.18469	661.21527	-275.63858	1030.6218	787.22931	-274.47418	926.20624	804.18988	-435.86697	1189.1906	1141.1847	-496.22687	924.64349	1402.4785	-344.73373	550.52954	1146.2412	-359.61978	557.44196	1256.5997	-563.00476	116.4145	1175.5992	-545.07898	120.8874	1229.6774
228	1.13	-743.57629	989.08527	611.06604	-723.38074	886.5954	609.39081	-268.12952	1034.6787	791.51648	-271.06793	931.59595	801.53009	-431.68024	1191.73	1141.593	-504.19968	924.11621	1396.8564	-348.18494	551.19623	1144.9464	-363.79047	558.71783	1255.2375	-563.23108	116.15895	1175.4963	-545.87311	120.58714	1229.7928
229	1.135	-721.32471	1019.8784	561.38501	-706.04462	916.82867	558.40173	-263.33469	1037.8633	794.67157	-269.35013	936.76025	798.21637	-428.51248	1194.0153	1142.2925	-510.79791	923.44171	1389.8804	-352.06653	551.74945	1143.4956	-367.69595	559.90259	1253.598	-563.6897	115.66756	1175.4958	-546.65363	120.19083	1229.8896
230	1.14	-693.73102	1050.3866	512.466	-677.81781	945.44977	502.87772	-262.52475	1039.4131	796.77661	-269.23865	941.7132	794.00854	-426.2709	1196.1738	1142.7664	-516.31305	923.11816	1383.7231	-354.4292	551.81458	1140.5193	-371.17218	560.77979	1251.4202	-564.14752	115.19865	1175.4796	-547.40515	119.86462	1229.9476
231	1.145	-660.87555	1080.3586	465.28601	-652.65137	976.97632	456.0166	-263.29233	1041.3105	796.99329	-271.01044	946.50519	789.06335	-424.30811	1198.9421	1142.9589	-520.43585	922.8067	1377.6594	-358.59094	552.31989	1138.5864	-374.21622	561.57776	1248.7502	-564.8725	114.78707	1175.2529	-548.0199	119.49969	1229.6555
232	1.15	-623.68469	1109.1528	421.02426	-618.32019	1006.812	409.56674	-266.33136	1042.7863	795.76062	-274.93054	950.98676	783.00897	-423.12933	1201.5288	1143.4905	-523.5509	922.81897	1372.2043	-360.90009	552.5285	1135.1394	-376.66721	562.42773	1245.9836	-565.45093	114.50868	1174.4199	-548.65338	119.42137	1229.0483
233	1.155	-582.30591	1136.0656	380.81799	-578.9245	1034.0831	367.29904	-271.17743	1044.6493	793.14813	-281.43976	955.57532	775.71362	-422.36804	1204.5312	1143.8767	-525.49554	922.90863	1367.4586	-364.00275	553.06757	1131.9735	-378.4841	563.24658	1242.8394	-565.67798	114.49554	1173.1226	-549.32538	119.41343	1227.8842
234	1.16	-536.4787	1160.4531	345.28381	-535.12091	1058.8987	329.28833	-277.44968	1047.0284	789.25476	-290.41431	960.24554	767.52307	-421.45114	1207.1841	1143.5438	-526.68231	923.16693	1364.3933	-367.22546	553.77826	1128.8938	-379.76178	564.0639	1239.4983	-566.11877	114.54402	1171.45	-550.28717	119.83008	1226.5155
235	1.165	-488.19464	1181.7982	315.73395	-487.05478	1081.0227	296.60785	-284.74359	1049.7476	784.03003	-301.70718	965.35974	758.78857	-421.02771	1209.9921	1143.0591	-527.23566	923.58368	1362.2308	-369.59076	554.2085	1125.2629	-380.6535	564.97876	1236.0422	-566.72144	114.52846	1169.4071	-551.14819	120.1389	1224.5293
236	1.17	-437.63147	1199.4105	293.06635	-444.98553	1099.5859	274.35818	-292.75827	1053.0946	777.5307	-314.75955	971.62885	749.62213	-422.0553	1212.2047	1142.8021	-527.1438	924.13806	1360.1542	-371.26007	554.78168	1121.4373	-381.09616	565.64594	1232.3733	-567.05731	114.78755	1166.8762	-551.99994	120.57475	1222.1249
237	1.175	-397.71338	1217.1589	283.93271	-423.22183	1118.3997	264.6239	-300.22977	1058.8827	769.8645	-328.29153	978.82733	740.22662	-422.72726	1214.2893	1140.8788	-526.53131	924.77423	1358.1007	-373.06805	555.43018	1118.1737	-381.34448	566.40405	1228.8577	-567.5744	115.24846	1163.8921	-553.07495	121.07475	1219.3427
238	1.18	-372.84567	1232.0747	282.03961	-412.98691	1138.1852	261.15393	-303.63766	1070.1274	762.36829	-342.02393	983.86273	731.57843	-424.27698	1216.4386	1138.7798	-525.33862	925.41223	1355.7643	-374.38367	555.42316	1114.6326	-381.33603	566.91699	1225.2367	-567.63824	115.41561	1160.2421	-554.15491	121.587	1215.9545
239	1.185	-366.37714	1236.1382	278.7933	-416.18222	1146.7966	262.08014	-305.48651	1082.1851	754.62354	-354.82755	988.62164	723.67151	-426.2825	1218.2509	1135.9136	-523.78973	926.36945	1353.7466	-374.12701	555.72711	1110.6865	-381.27213	567.32898	1221.563	-567.67389	115.782	1156.8553	-554.91705	121.97654	1212.0217
240	1.19	-371.19687	1234.0173	272.95999	-419.57745	1141.2227	261.51773	-304.45822	1085.8689	748.77283	-358.28766	995.61578	719.30646	-429.17175	1219.4274	1132.2028	-521.96326	927.25592	1351.103	-374.31143	556.10925	1107.3429	-381.16095	567.59967	1217.5433	-567.72992	116.36065	1152.9198	-556.06396	123.04857	1208.8214
241	1.195	-383.33304	1229.3103	268.43896	-419.52802	1131.8497	258.17136	-300.34131	1086.9495	744.46899	-350.51746	998.63312	715.51172	-431.82285	1220.4904	1127.8708	-519.56244	927.79144	1347.5421	-372.85425	556.03558	1102.8406	-381.18863	567.81122	1213.2218	-567.89594	117.00665	1149.1437	-556.37238	123.78117	1204.7098
242	1.2	-396.71695	1222.8032	264.72903	-417.34778	1120.6349	255.74205	-296.79077	1087.2944	742.49176	-345.43158	1001.1483	714.73767	-434.38058	1221.1991	1122.8279	-517.33936	928.32574	1344.0535	-371.5256	556.19727	1098.651	-381.18707	568.11633	1208.3534	-567.88184	117.89514	1145.0967	-556.81061	125.15675	1201.0865
243	1.205	-408.3136	1215.2893	261.35361	-415.74329	1112.4939	252.60519	-294.48422	1086.9617	743.83173	-340.46631	1006.0123	714.12946	-437.96286	1221.8727	1117.7958	-515.28406	928.75488	1340.6703	-371.48007	556.01794	1095.3324	-381.2626	568.56854	1203.2662	-567.85474	118.46545	1140.9076	-557.10388	126.14708	1197.0835
244	1.21	-416.93839	1207.639	257.61081	-417.38174	1103.3865	248.91699	-294.96753	1087.6481	746.38794	-339.63782	1010.3798	714.8067	-442.51331	1222.0259	1112.5387	-512.94537	928.71948	1336.6392	-369.97263	555.94159	1090.2592	-381.4054	569.20447	1197.9912	-568.14392	119.13411	1136.9813	-557.15619	127.18904	1192.7421
245	1.215	-425.80688	1197.5951	252.08948	-419.71542	1092.5936	245.92996	-297.72177	1091.7659	748.05072	-339.08951	1014.0257	715.76123	-448.37744	1222.7651	1107.9999	-510.81229	928.46045	1332.5762	-368.87183	556.40369	1085.0388	-381.58115	569.87878	1192.5532	-568.05115	119.80745	1132.6177	-557.45654	128.09186	1188.5179
